<?xml version="1.0" standalone="no"?>
<!DOCTYPE svg PUBLIC "-//W3C//DTD SVG 20010904//EN"
 "http://www.w3.org/TR/2001/REC-SVG-20010904/DTD/svg10.dtd">
<svg version="1.0" xmlns="http://www.w3.org/2000/svg"
 width="1280.000000pt" height="1280.000000pt" viewBox="0 0 1280.000000 1280.000000"
 preserveAspectRatio="xMidYMid meet">
<metadata>
Created by potrace 1.11, written by Peter Selinger 2001-2013
</metadata>
<g transform="translate(0.000000,1280.000000) scale(0.100000,-0.100000)"
fill="#000000" stroke="none">
<path d="M1155 12790 c-3 -5 -26 -10 -50 -10 -24 0 -47 -4 -50 -10 -3 -5 -19
-10 -34 -10 -15 0 -36 -7 -47 -15 -10 -8 -29 -15 -42 -15 -12 0 -30 -4 -40
-10 -9 -5 -65 -32 -123 -60 -275 -131 -502 -359 -635 -639 -25 -53 -50 -104
-55 -113 -5 -10 -9 -28 -9 -40 0 -13 -7 -32 -15 -42 -8 -11 -15 -32 -15 -47 0
-15 -4 -31 -10 -34 -5 -3 -10 -26 -10 -50 0 -24 -5 -47 -10 -50 -14 -9 -14
-10481 0 -10490 6 -3 10 -26 10 -50 0 -24 4 -46 9 -49 5 -3 11 -20 14 -38 4
-29 11 -51 37 -123 5 -11 31 -69 60 -128 135 -277 350 -493 626 -626 60 -29
116 -56 124 -61 9 -4 30 -11 48 -14 17 -4 34 -12 37 -17 4 -5 21 -9 39 -9 18
0 36 -3 40 -7 31 -31 111 -32 5346 -32 5235 0 5315 1 5346 32 4 4 22 7 40 7
18 0 35 4 39 9 3 5 20 13 37 17 18 3 39 10 48 14 28 15 131 60 135 60 3 0 46
25 96 56 191 118 346 273 461 461 49 79 66 114 100 193 6 14 14 32 18 40 4 9
11 30 14 48 4 17 12 34 17 37 5 4 9 21 9 39 0 18 3 36 7 40 31 31 32 111 32
5346 0 5235 -1 5315 -32 5346 -4 4 -7 22 -7 40 0 18 -4 35 -9 39 -5 3 -13 20
-17 37 -3 18 -10 39 -14 48 -4 8 -16 33 -25 55 -27 61 -30 66 -65 130 -132
240 -346 443 -598 565 -59 29 -116 56 -127 60 -11 4 -36 13 -55 20 -19 7 -50
15 -68 17 -18 3 -35 9 -38 14 -3 5 -25 9 -49 9 -24 0 -47 5 -50 10 -4 7 -1763
10 -5245 10 -3482 0 -5241 -3 -5245 -10z m5570 -801 c318 -21 724 -87 990
-161 61 -17 133 -36 160 -44 226 -58 587 -200 890 -349 464 -228 842 -482
1225 -821 155 -137 433 -422 556 -569 135 -162 144 -175 144 -198 0 -18 -4
-19 -57 -13 -31 4 -63 12 -71 19 -8 7 -79 86 -157 177 -157 181 -418 442 -592
591 -711 608 -1586 1023 -2518 1195 -496 92 -1087 109 -1612 49 -1177 -137
-2331 -705 -3169 -1561 -120 -122 -288 -309 -352 -391 -256 -331 -416 -575
-580 -884 -34 -63 -71 -124 -82 -134 -22 -20 -127 -38 -136 -23 -7 11 137 285
234 447 248 413 489 719 841 1072 363 362 638 576 1086 846 136 82 514 274
645 328 616 252 1155 381 1770 425 277 19 488 19 785 -1z m345 -617 l35 -8 42
-264 c22 -146 87 -552 142 -902 56 -351 101 -647 101 -659 0 -16 -4 -19 -20
-14 -35 11 -322 8 -410 -4 -290 -41 -572 -160 -804 -338 -38 -29 -76 -53 -84
-53 -9 0 -23 -7 -33 -15 -21 -19 -11 -68 -98 490 -11 66 -42 266 -71 445 -111
706 -130 822 -137 833 -7 12 103 117 197 189 232 176 486 273 820 312 49 6
277 -3 320 -12z m414 -279 c3 -16 32 -201 66 -413 33 -212 98 -623 144 -915
46 -291 83 -532 81 -535 -2 -3 -43 -2 -92 2 -364 27 -540 31 -681 15 -157 -18
-258 -41 -396 -91 -50 -18 -129 -45 -176 -60 -47 -15 -92 -30 -100 -33 -8 -3
8 11 36 30 73 51 244 130 354 165 173 55 261 66 512 67 l227 0 35 34 c20 19
41 50 47 69 14 42 15 31 -61 512 -11 69 -31 197 -45 285 -14 88 -30 187 -35
220 -5 33 -19 116 -29 185 -46 288 -72 441 -77 454 -4 11 5 17 33 21 21 4 43
8 48 10 6 2 31 4 57 4 43 1 47 -1 52 -26z m-2459 -39 c190 -24 316 -61 488
-141 54 -25 79 -43 82 -57 2 -12 13 -79 24 -151 27 -168 62 -391 101 -635 46
-288 75 -475 105 -665 15 -93 33 -206 40 -250 8 -46 10 -84 5 -89 -5 -5 -23 0
-43 11 -18 11 -75 35 -126 52 -340 114 -759 112 -1081 -6 -100 -37 -178 -55
-185 -43 -3 4 -11 54 -20 111 -14 93 -34 221 -95 604 -11 66 -49 307 -85 535
-66 422 -82 522 -91 551 -5 17 3 21 106 67 119 52 326 103 455 112 172 11 193
11 320 -6z m-970 -496 c3 -18 28 -177 55 -353 28 -176 57 -362 65 -412 8 -51
22 -135 30 -185 8 -51 28 -181 45 -288 64 -410 59 -390 110 -434 55 -45 88
-44 218 8 224 88 410 121 642 113 139 -5 312 -30 379 -55 11 -4 -107 -8 -262
-8 -221 -1 -303 -6 -377 -19 -134 -25 -458 -133 -613 -204 -65 -30 -102 -41
-137 -41 -45 0 -49 2 -54 28 -3 15 -28 171 -56 347 -28 176 -64 403 -80 505
-16 102 -57 354 -90 560 -33 206 -63 387 -66 402 -7 30 1 34 106 53 36 7 68
13 72 14 4 0 10 -14 13 -31z m7306 -1268 c213 -64 409 -301 413 -499 l1 -56
-40 -6 c-22 -4 -211 -34 -420 -68 -482 -78 -438 -68 -432 -98 3 -15 -1 -27 -9
-30 -8 -3 -14 -11 -14 -17 0 -28 73 -95 142 -131 63 -34 84 -39 154 -43 97 -5
163 12 249 64 51 30 66 35 104 31 58 -6 84 -33 85 -89 1 -40 -1 -43 -29 -48
-16 -3 -51 -18 -78 -34 -94 -56 -181 -80 -297 -80 -133 -1 -218 24 -323 94
-79 53 -120 94 -173 176 -18 28 -40 54 -47 57 -53 20 -71 279 -27 392 120 311
437 475 741 385z m-1103 -198 c110 -47 150 -76 158 -118 3 -19 3 -39 -2 -44
-5 -5 -34 -12 -65 -16 -49 -6 -64 -2 -130 26 -180 80 -373 35 -483 -111 -65
-86 -76 -130 -73 -279 3 -117 5 -129 34 -185 39 -76 100 -133 188 -175 154
-74 310 -42 450 91 63 60 113 69 159 30 48 -42 52 -113 6 -119 -14 -2 -38 -16
-55 -31 -54 -50 -149 -107 -215 -130 -90 -31 -226 -38 -310 -17 -146 36 -291
137 -361 249 -17 28 -42 61 -55 72 -56 49 -71 265 -26 387 63 175 193 309 366
378 114 45 296 42 414 -8z m-1091 -113 c83 -12 115 -31 131 -78 5 -14 6 -36 1
-49 -8 -21 -13 -22 -141 -22 -192 0 -266 -25 -353 -118 -105 -112 -116 -222
-59 -577 20 -126 37 -255 38 -285 l1 -55 -89 0 c-106 1 -108 3 -125 113 -27
174 -55 351 -111 700 -17 106 -29 205 -25 221 3 16 17 39 31 52 48 45 144 21
166 -42 11 -33 20 -36 39 -13 27 33 136 102 194 123 102 38 187 46 302 30z
m-1302 -224 c168 -44 316 -158 393 -302 37 -70 76 -206 68 -237 -7 -29 -49
-38 -510 -111 -434 -69 -413 -64 -383 -94 10 -10 9 -14 -5 -22 -26 -15 -22
-30 18 -77 22 -26 63 -55 112 -79 72 -36 81 -38 173 -38 97 0 97 0 194 50 101
52 139 58 181 30 47 -31 52 -125 7 -125 -10 0 -52 -18 -94 -40 -104 -54 -183
-73 -299 -73 -115 1 -199 25 -288 83 -86 55 -144 111 -183 175 -18 30 -38 55
-44 55 -30 0 -65 126 -65 236 0 162 69 308 203 431 136 124 354 181 522 138z
m-1215 -217 c111 -32 235 -129 287 -224 37 -69 54 -132 83 -324 12 -74 32
-204 46 -289 14 -85 22 -161 19 -169 -4 -12 -22 -14 -96 -10 -53 3 -94 10 -99
17 -3 7 -19 89 -34 184 -15 95 -34 209 -42 255 -8 46 -17 120 -20 164 -6 89
-20 125 -68 176 -46 50 -101 74 -178 80 -127 9 -207 -35 -265 -145 -29 -54
-31 -64 -28 -143 2 -47 15 -157 29 -245 73 -444 72 -437 52 -454 -19 -16 -162
-9 -179 8 -10 10 -22 72 -66 366 -11 72 -25 157 -30 190 -6 33 -8 68 -5 77 8
27 -52 142 -88 170 -66 50 -99 61 -178 61 -87 -1 -131 -16 -188 -67 -60 -55
-86 -123 -83 -221 2 -73 12 -143 71 -511 11 -67 20 -137 20 -156 l0 -35 -58
-6 c-37 -4 -71 -1 -97 7 -45 16 -46 19 -69 166 -8 52 -24 156 -36 230 -97 604
-97 604 -77 634 31 47 62 61 107 47 22 -6 51 -24 64 -38 l25 -26 36 31 c141
124 386 137 540 27 50 -35 75 -44 75 -25 0 24 87 102 158 143 68 39 119 56
212 71 33 5 117 -3 160 -16z m-1810 -303 c54 -22 153 -90 197 -137 47 -50 92
-144 108 -228 8 -41 26 -149 40 -240 14 -91 33 -210 42 -266 23 -139 23 -138
-88 -132 -49 3 -92 8 -95 11 -6 5 -26 123 -49 277 -8 52 -21 136 -30 185 -8
50 -16 116 -16 148 -1 33 -7 71 -15 85 -8 15 -14 32 -14 38 0 6 -22 31 -48 56
-120 112 -317 101 -408 -23 -76 -104 -76 -127 2 -604 27 -165 38 -261 31 -278
-7 -18 -74 -23 -149 -11 -45 8 -47 12 -79 219 -12 77 -31 201 -44 275 -12 74
-18 140 -14 146 14 18 -55 146 -95 177 -62 48 -102 60 -191 55 -88 -5 -124
-19 -174 -70 -83 -84 -96 -174 -57 -413 14 -82 36 -224 51 -314 14 -90 24
-169 21 -176 -13 -34 -187 -23 -201 13 -3 8 -12 58 -20 111 -8 53 -24 155 -36
226 -92 581 -97 616 -87 652 21 76 126 87 180 19 13 -15 21 -18 31 -11 8 6 36
26 63 47 68 51 148 73 264 72 108 -1 170 -21 253 -81 26 -19 49 -34 51 -32 1
2 12 20 24 39 31 53 146 134 233 166 93 34 231 34 319 -1z m-3230 -15 c25 -5
77 -20 115 -35 39 -14 77 -29 86 -31 19 -7 49 -66 49 -98 0 -21 -6 -24 -59
-30 -48 -6 -77 -2 -152 20 -276 79 -527 -4 -693 -230 -62 -84 -87 -143 -91
-211 -1 -27 -7 -83 -14 -123 -13 -83 -8 -136 20 -243 37 -137 124 -254 255
-339 110 -72 193 -95 339 -94 110 0 126 3 200 32 44 18 112 55 150 82 103 74
106 75 157 59 34 -11 47 -22 62 -52 22 -45 10 -87 -23 -87 -11 0 -48 -20 -83
-44 -219 -152 -472 -193 -719 -116 -166 51 -360 206 -449 358 -24 41 -49 76
-56 79 -22 8 -52 105 -65 211 -31 248 52 473 246 667 200 200 446 276 725 225z
m1236 -261 c89 -16 229 -88 297 -153 66 -64 127 -153 159 -235 30 -76 33 -280
5 -353 -10 -27 -24 -48 -30 -48 -7 0 -29 -26 -49 -58 -110 -170 -286 -266
-488 -266 -109 0 -156 12 -257 62 -88 43 -159 104 -218 187 -25 35 -52 65 -60
68 -7 3 -23 36 -34 73 -70 223 35 490 248 633 131 87 274 118 427 90z m8167
-171 c31 -16 45 -38 51 -78 3 -19 26 -165 51 -325 25 -159 54 -344 65 -410 10
-66 36 -225 56 -354 l37 -233 50 6 c57 8 88 -7 113 -55 23 -46 12 -75 -33 -83
-142 -26 -207 -33 -241 -24 -20 5 -46 11 -56 12 -24 3 -30 24 -51 166 -8 58
-24 159 -34 225 -11 66 -36 224 -56 350 -20 127 -51 325 -70 441 -43 260 -45
315 -10 349 27 28 89 34 128 13z m-398 -248 c26 -25 35 -57 24 -88 -8 -20 -15
-22 -103 -22 -88 0 -94 1 -99 22 -8 28 15 81 44 102 32 23 102 16 134 -14z m8
-263 c58 -25 58 -23 108 -342 11 -71 29 -184 39 -250 11 -66 28 -178 40 -250
11 -71 23 -152 28 -180 4 -27 6 -57 4 -66 -8 -43 -190 -35 -207 9 -3 8 -30
172 -61 366 -31 193 -62 392 -70 441 -28 173 -29 207 -4 238 36 46 71 55 123
34z m-513 -137 c148 -59 197 -101 188 -162 -3 -21 -8 -23 -75 -26 -61 -2 -80
1 -121 22 -158 80 -369 39 -477 -92 -70 -84 -87 -129 -92 -249 -10 -211 58
-336 225 -416 110 -52 249 -48 352 11 25 14 69 48 97 75 43 41 61 50 98 55 35
4 50 1 66 -14 22 -20 50 -68 48 -81 -3 -20 -21 -43 -33 -43 -7 0 -46 -25 -87
-55 -135 -101 -233 -135 -384 -135 -192 0 -363 91 -481 256 -25 35 -50 64 -55
64 -13 0 -37 60 -50 123 -38 194 40 408 204 558 40 36 154 97 227 121 79 26
272 20 350 -12z m-1335 -197 c175 -51 331 -191 395 -352 20 -52 34 -122 70
-361 11 -69 24 -149 30 -179 5 -29 10 -71 10 -92 l0 -37 -62 -7 c-43 -4 -75
-2 -103 8 l-39 14 -22 134 c-57 349 -64 399 -64 434 0 79 -102 215 -197 263
-97 50 -241 49 -342 -3 -61 -30 -135 -111 -169 -183 -25 -52 -27 -67 -26 -167
1 -60 11 -168 23 -240 54 -323 62 -378 57 -390 -8 -21 -111 -30 -157 -15 -22
8 -42 17 -45 21 -5 9 -57 319 -110 664 -9 55 -24 149 -34 208 -11 59 -17 121
-13 137 19 98 151 109 196 17 l19 -37 51 46 c137 123 350 170 532 117z m-1054
-123 c67 -19 63 -8 118 -350 11 -69 34 -213 51 -320 17 -107 37 -235 45 -284
8 -49 15 -104 15 -122 l0 -32 -64 -7 c-79 -9 -119 7 -124 48 -3 26 -25 37 -37
17 -3 -5 -17 -10 -30 -10 -13 0 -43 -16 -67 -37 -127 -107 -351 -142 -515 -82
-120 45 -257 154 -304 244 -13 25 -29 45 -35 45 -26 0 -46 72 -79 275 -14 88
-32 199 -40 246 -20 117 -19 151 6 183 28 36 58 46 104 36 67 -15 72 -27 105
-235 61 -384 74 -438 132 -522 71 -105 217 -164 351 -143 131 20 221 88 281
213 27 55 33 81 35 140 2 70 -4 113 -49 392 -35 216 -36 236 -10 268 19 24 49
44 70 46 3 1 21 -4 41 -9z m-2910 -26 c46 -9 119 -29 162 -46 71 -27 81 -34
97 -70 27 -61 18 -75 -50 -83 -48 -6 -76 -2 -150 20 -74 22 -113 27 -199 28
-183 1 -300 -49 -437 -188 -93 -93 -153 -199 -153 -270 0 -22 -4 -64 -10 -94
-33 -166 13 -365 114 -493 180 -230 499 -304 760 -177 33 17 88 50 120 75 49
36 67 44 103 44 35 0 49 -6 73 -29 40 -40 39 -111 -2 -111 -10 0 -47 -20 -82
-45 -78 -54 -191 -109 -272 -131 -95 -25 -286 -30 -381 -9 -217 47 -422 196
-534 388 -25 42 -49 77 -55 77 -16 0 -53 107 -65 187 -20 144 -4 276 50 406
156 376 535 593 911 521z m1293 -274 c316 -81 521 -399 450 -700 -11 -48 -23
-72 -47 -95 -18 -17 -53 -60 -78 -97 -106 -149 -297 -237 -494 -225 -187 11
-371 119 -460 270 -15 26 -35 52 -45 57 -25 13 -49 89 -56 179 -16 204 96 418
282 537 138 88 292 114 448 74z m-4662 -547 c39 -45 29 -93 -19 -93 -33 0
-515 -247 -496 -254 8 -3 27 -6 41 -7 23 0 20 -4 -23 -25 -27 -13 -54 -26 -60
-28 -20 -9 21 -26 60 -26 23 0 124 -13 225 -30 102 -16 217 -35 255 -41 96
-15 123 -27 140 -60 26 -49 20 -59 -32 -59 -56 0 -444 66 -653 110 -80 18
-160 34 -178 37 -24 4 -34 12 -39 32 -10 40 -6 62 18 87 46 49 667 373 715
374 17 0 38 -8 46 -17z m10347 -58 c69 -35 88 -146 50 -294 -11 -45 -19 -85
-16 -87 3 -3 24 -6 47 -7 36 -1 46 3 66 28 32 40 47 120 39 200 -8 74 4 117
38 132 58 27 87 -26 87 -158 0 -103 -19 -160 -69 -210 -23 -23 -41 -45 -41
-50 0 -4 -20 -20 -43 -34 -33 -19 -58 -25 -99 -25 -72 0 -239 34 -279 57 -17
10 -42 24 -56 31 -31 18 -43 50 -43 121 0 110 44 225 104 272 63 49 148 59
215 24z m-9215 -216 l32 -114 138 -3 139 -3 -47 -31 c-26 -17 -68 -35 -94 -40
-25 -4 -50 -12 -54 -16 -16 -16 -11 -109 10 -186 26 -93 25 -86 8 -86 -8 0
-29 19 -47 43 -52 68 -79 87 -126 87 -38 0 -46 -5 -93 -59 -47 -54 -77 -77
-86 -68 -2 2 8 44 22 93 15 49 26 94 25 99 0 6 -3 21 -5 35 -2 14 -5 30 -5 37
-1 7 -23 15 -51 19 -33 4 -66 18 -98 40 l-47 34 137 0 136 0 33 120 c18 66 34
118 36 116 2 -2 19 -55 37 -117z m6335 -395 c16 -55 59 -202 96 -329 37 -126
74 -255 82 -285 8 -30 18 -59 23 -64 5 -5 189 -8 422 -7 404 2 412 2 388 -16
-52 -39 -80 -53 -122 -59 -47 -7 -51 -11 -319 -217 -165 -127 -166 -128 -173
-174 -3 -25 -4 -48 -2 -52 4 -6 56 -204 146 -556 22 -88 39 -167 37 -175 -2
-10 -27 10 -73 57 -38 39 -165 149 -283 242 -188 150 -219 171 -250 171 -20 0
-48 -8 -61 -17 -94 -65 -436 -347 -487 -402 -33 -36 -64 -63 -67 -60 -7 7 2
48 104 443 39 154 75 287 80 296 5 9 5 22 0 30 -4 7 -6 23 -4 35 5 27 4 28
-244 218 -174 133 -209 156 -248 162 -28 4 -67 21 -97 41 l-51 35 410 -1 c225
-1 414 -1 419 -1 6 1 16 20 23 44 7 23 39 134 72 247 33 113 79 271 102 352
23 81 44 145 46 144 2 -2 16 -48 31 -102z m2549 -5 c31 -57 55 -76 112 -88
112 -24 164 -89 162 -200 -2 -63 -28 -175 -51 -219 -10 -18 -8 -24 14 -38 41
-27 65 -2 99 100 45 137 113 238 181 271 69 32 137 12 177 -52 20 -34 23 -49
22 -138 -1 -57 -8 -119 -16 -145 -25 -79 -143 -226 -203 -254 -75 -36 -149 -6
-181 74 -14 35 -19 38 -67 44 -28 4 -66 16 -84 27 -29 18 -43 19 -126 13 -97
-7 -135 2 -166 40 -8 9 -22 16 -32 16 -43 0 -51 103 -18 202 12 35 39 90 61
123 39 58 39 59 24 95 -27 62 -24 103 9 135 33 34 62 32 83 -6z m-9844 -150
c28 -13 60 -67 55 -94 -4 -16 -12 -18 -69 -16 -35 1 -68 5 -72 7 -5 3 -8 23
-8 44 0 29 6 43 22 54 27 19 39 20 72 5z m-233 -69 c22 -12 49 -61 49 -90 0
-16 -6 -20 -32 -20 -18 0 -126 -27 -241 -61 -188 -55 -212 -60 -260 -52 -51 8
-52 9 -55 44 -2 24 3 40 15 51 10 9 117 42 238 73 120 30 221 58 224 60 8 8
42 5 62 -5z m2009 -320 c23 -80 47 -165 54 -190 l12 -45 198 -3 197 -2 -29
-25 c-35 -29 -74 -45 -111 -45 -18 0 -50 -17 -88 -46 -56 -43 -61 -50 -67 -95
-4 -27 -2 -56 3 -66 10 -19 22 -63 46 -168 8 -33 19 -73 25 -89 17 -47 -3 -51
-43 -9 -21 20 -37 41 -37 45 0 4 -36 37 -81 73 -72 57 -86 65 -124 65 -37 0
-53 -8 -112 -54 -38 -30 -82 -71 -97 -90 -38 -50 -67 -76 -78 -70 -5 3 -6 13
-3 23 4 9 20 70 36 136 16 66 34 129 39 140 6 11 8 38 6 60 -3 22 -5 43 -5 46
-1 4 -27 26 -58 50 -40 30 -71 45 -105 50 -29 5 -66 20 -90 38 l-41 31 198 2
199 3 54 193 c31 105 56 191 57 190 2 -2 22 -68 45 -148z m-1915 -79 c22 -10
55 -35 74 -56 40 -46 87 -142 96 -196 4 -21 11 -39 16 -39 5 0 52 18 105 40
53 22 104 40 113 40 19 0 52 -32 71 -68 13 -25 6 -57 -10 -47 -17 10 -85 -14
-227 -81 -378 -179 -369 -174 -386 -210 -16 -33 -19 -34 -73 -34 l-56 0 4 43
c5 48 -12 96 -52 147 -15 19 -35 50 -44 68 -9 17 -23 32 -30 32 -39 0 -62 160
-32 218 33 62 83 93 226 137 91 29 152 31 205 6z m9872 -193 c35 -21 63 -69
63 -107 0 -46 -23 -121 -44 -143 -25 -26 -52 -85 -43 -95 4 -3 -1 -19 -10 -34
-15 -25 -16 -31 -3 -43 68 -67 163 24 191 182 15 81 44 126 86 130 28 3 33 -1
39 -23 4 -15 4 -50 1 -78 -6 -54 -42 -147 -57 -147 -4 0 -22 -24 -38 -52 -36
-63 -61 -88 -126 -122 -76 -40 -114 -36 -242 30 -178 90 -178 91 -186 126 -19
86 58 276 140 348 25 22 59 44 76 50 44 13 113 4 153 -22z m-6569 -446 c29
-104 62 -219 74 -255 l20 -67 271 0 272 0 -47 -34 c-31 -21 -65 -36 -95 -40
-39 -5 -64 -19 -138 -77 -49 -39 -98 -77 -108 -84 -11 -7 -19 -26 -19 -44 -1
-18 -5 -34 -10 -37 -4 -3 -6 -9 -3 -13 5 -9 18 -55 76 -281 22 -85 42 -163 45
-172 11 -36 -26 -17 -68 35 -24 30 -97 97 -163 150 -111 89 -123 96 -165 96
-42 0 -53 -6 -166 -97 -67 -53 -134 -113 -150 -132 -39 -47 -78 -82 -82 -71
-1 4 23 107 55 227 56 217 67 300 43 329 -6 7 -55 47 -110 89 -76 58 -110 77
-142 82 -24 3 -61 18 -83 33 -22 14 -47 29 -55 33 -8 4 109 7 261 7 l275 1 16
53 c9 28 42 143 74 255 32 111 60 202 64 202 3 0 29 -85 58 -188z m2057 -127
c43 -148 82 -288 88 -310 18 -71 -4 -67 367 -63 l337 3 -46 -32 c-25 -18 -55
-33 -66 -33 -11 -1 -36 -7 -55 -14 -39 -14 -339 -241 -347 -263 -15 -40 0
-123 70 -393 42 -162 74 -296 71 -299 -2 -3 -35 27 -72 67 -37 39 -141 130
-232 202 -145 115 -169 130 -202 130 -33 0 -58 -16 -216 -142 -98 -79 -194
-162 -212 -186 -32 -41 -67 -68 -76 -59 -5 4 36 167 108 432 26 93 41 169 40
200 -2 58 6 50 -205 211 -114 86 -145 105 -182 111 -27 3 -63 19 -89 37 l-44
31 335 -4 c198 -2 339 1 344 6 9 9 121 382 171 570 12 46 25 80 29 75 3 -4 41
-128 84 -277z m-5017 151 c29 -16 62 -64 62 -91 0 -25 -18 -45 -41 -45 -9 0
-47 -42 -88 -97 -60 -81 -70 -98 -56 -105 13 -8 11 -15 -16 -49 -17 -22 -29
-43 -25 -46 3 -4 39 1 79 10 148 34 285 52 314 41 29 -10 76 -70 70 -88 -2 -6
-35 -14 -73 -17 -38 -4 -166 -21 -284 -39 -276 -41 -383 -39 -475 7 -33 17
-74 46 -92 65 -18 18 -41 41 -53 51 -24 20 -27 69 -5 87 25 21 60 3 109 -55
51 -59 95 -79 164 -73 33 3 42 10 87 74 250 356 271 384 295 383 3 0 15 -5 28
-13z m9000 -170 c103 -57 214 -118 247 -136 33 -18 79 -44 102 -57 35 -20 49
-23 91 -17 44 6 51 4 56 -14 9 -29 -10 -72 -32 -72 -11 0 -31 -9 -45 -20 -16
-13 -40 -20 -69 -20 -38 0 -74 19 -307 161 -150 91 -279 163 -298 166 -44 7
-50 24 -24 67 42 67 62 63 279 -58z m-118 -388 c264 -175 277 -183 325 -183
l50 0 0 -34 c0 -30 -4 -36 -31 -43 -17 -4 -37 -15 -44 -23 -17 -21 -103 -20
-138 2 -27 18 -251 179 -396 285 -59 43 -88 58 -113 58 -30 0 -33 2 -33 32 0
40 43 88 80 88 17 0 120 -63 300 -182z m-8425 -140 c58 -38 149 -145 181 -213
36 -76 29 -175 -12 -175 -27 0 -214 -180 -214 -205 0 -103 -37 -113 -104 -27
-56 72 -69 85 -145 150 -37 32 -71 73 -86 103 -17 33 -32 49 -45 49 -14 0 -23
12 -34 50 -16 55 -9 99 21 132 25 28 87 58 118 58 67 0 182 -91 262 -207 38
-55 48 -60 74 -40 48 37 53 124 10 183 -42 58 -76 85 -113 93 -24 5 -34 13
-36 29 -9 58 51 68 123 20z m8218 -174 c100 -51 223 -163 238 -218 14 -53 -9
-146 -36 -146 -15 0 -36 -26 -74 -88 -49 -82 -163 -142 -268 -142 -69 0 -83 8
-168 90 -38 38 -79 70 -90 72 -13 2 -22 15 -28 41 -19 80 40 196 156 304 98
91 198 123 270 87z m-7754 -360 c17 -14 34 -39 39 -55 6 -25 18 -34 66 -54
102 -41 205 -149 220 -229 10 -51 -10 -116 -34 -116 -13 0 -51 -39 -112 -115
l-92 -115 -73 0 c-61 0 -74 3 -82 19 -13 23 8 52 133 191 91 101 112 141 102
195 -13 68 -133 143 -184 116 -11 -6 -66 -60 -123 -122 l-104 -111 -69 6 c-80
7 -86 10 -86 39 0 16 43 63 144 160 109 104 146 145 151 170 4 17 9 35 12 40
10 16 63 6 92 -19z m7061 -5 c17 -31 6 -46 -39 -52 -62 -8 -131 -46 -188 -103
l-53 -53 0 -65 c0 -35 5 -77 11 -92 15 -41 199 -264 234 -286 89 -54 223 18
292 157 32 66 82 102 125 92 14 -4 28 -14 32 -22 8 -22 -20 -85 -37 -85 -8 0
-37 -30 -65 -66 -99 -130 -220 -190 -365 -183 -97 5 -130 31 -247 187 -50 67
-98 122 -105 122 -21 0 -38 67 -32 127 7 65 38 122 107 192 89 91 196 149 277
150 33 1 45 -4 53 -20z m-6303 -395 c50 -38 44 -95 -12 -106 -15 -3 -19 -11
-18 -33 1 -16 -3 -35 -10 -43 -10 -12 -6 -20 23 -41 68 -52 114 -101 103 -112
-8 -8 -17 -8 -31 0 -11 6 -28 11 -37 11 -9 0 -41 12 -71 26 -33 16 -64 24 -77
20 -12 -3 -46 -39 -76 -82 -46 -65 -54 -83 -58 -130 -2 -30 1 -63 7 -73 5 -11
37 -39 70 -62 55 -38 80 -72 66 -86 -3 -4 -16 -1 -29 5 -12 6 -42 16 -66 22
-34 9 -59 27 -106 76 -35 35 -70 64 -78 64 -41 0 -49 84 -13 147 23 40 257
353 299 401 27 30 72 28 114 -4z m5321 -300 c12 -8 22 -23 22 -33 0 -15 -12
-19 -78 -24 -92 -6 -174 -40 -228 -93 -32 -33 -34 -38 -34 -104 0 -65 5 -80
66 -213 72 -154 98 -190 152 -208 54 -18 155 18 220 79 29 27 31 33 22 57 -7
19 -7 31 0 40 14 16 -63 135 -87 135 -10 0 -51 -7 -92 -15 -40 -9 -76 -13 -79
-10 -3 3 0 16 6 29 6 14 45 42 104 73 113 60 143 69 172 50 18 -12 107 -153
155 -245 15 -28 -5 -75 -34 -80 -11 -2 -48 -31 -82 -63 -77 -74 -151 -109
-257 -122 -169 -20 -239 19 -315 177 -22 47 -41 89 -41 92 0 4 -11 17 -24 29
-47 43 -61 167 -27 240 50 110 246 222 391 224 26 1 55 -6 68 -15z m-4518 -99
c16 -9 33 -27 36 -40 8 -31 -13 -85 -33 -85 -19 0 -79 -130 -63 -140 8 -5 8
-14 0 -34 -5 -15 -10 -31 -10 -35 0 -9 260 -121 279 -121 6 0 16 12 22 28 73
198 93 241 119 252 35 14 72 5 101 -26 l24 -25 -23 -62 c-28 -74 -158 -443
-180 -508 -12 -36 -21 -48 -47 -58 -44 -16 -144 -15 -151 2 -2 7 18 70 46 140
53 134 56 147 40 147 -5 0 -10 11 -10 24 0 13 -6 26 -12 29 -240 101 -261 105
-294 54 -11 -17 -38 -69 -59 -114 -33 -70 -43 -83 -68 -89 -36 -8 -120 4 -129
19 -8 13 306 643 324 650 25 10 59 7 88 -8z m3827 -240 c83 -42 133 -124 133
-219 0 -53 -12 -76 -39 -76 -9 0 -38 -22 -65 -50 -38 -39 -66 -56 -130 -80
-44 -17 -91 -35 -102 -40 -36 -15 -37 -63 -4 -174 16 -54 27 -102 24 -107 -6
-10 -82 -12 -137 -3 -42 7 -34 -11 -96 229 -17 66 -45 172 -63 235 -57 211
-61 203 142 265 180 55 258 59 337 20z m-3041 -66 c13 -13 24 -30 24 -39 0
-15 -10 -16 -82 -12 -46 2 -85 6 -87 8 -2 2 -1 14 3 27 12 49 97 59 142 16z
m1299 -170 c6 -6 12 -133 15 -339 5 -317 6 -329 26 -352 22 -24 22 -57 1 -40
-7 5 -39 14 -72 21 -50 10 -68 10 -110 -3 -94 -29 -205 -15 -267 35 -20 16
-46 29 -57 29 -29 0 -35 34 -27 154 8 132 20 173 65 217 46 47 105 64 186 54
122 -14 110 -23 112 85 4 119 8 139 36 150 25 11 76 5 92 -11z m-1371 -50 c14
-11 26 -29 26 -40 0 -11 -15 -75 -34 -142 -19 -67 -42 -153 -53 -192 -21 -79
-26 -82 -130 -84 -76 -1 -76 -5 -29 145 18 60 46 150 61 199 36 121 46 135 94
135 24 0 48 -8 65 -21z m322 -100 c18 -17 26 -19 65 -10 133 31 266 -17 316
-113 17 -33 13 -150 -10 -311 l-12 -79 -77 -4 c-42 -2 -79 1 -82 6 -3 5 6 84
21 175 29 191 27 229 -17 252 -34 18 -85 19 -127 5 -36 -13 -54 -57 -57 -140
-1 -30 -11 -94 -20 -142 l-18 -88 -84 0 c-68 0 -84 3 -84 15 0 20 57 280 71
322 8 24 7 42 -3 69 -12 34 -11 37 12 56 29 23 73 18 106 -13z m1731 -52 c11
-11 30 -112 57 -313 11 -81 16 -95 41 -116 19 -17 26 -30 22 -42 -5 -13 -11
-15 -26 -7 -10 6 -44 14 -74 17 -48 6 -63 3 -108 -20 -93 -46 -259 -31 -308
27 -7 10 -22 17 -32 17 -30 0 -37 35 -45 217 -8 192 -4 203 65 203 71 0 74 -7
88 -201 10 -141 16 -178 31 -199 30 -39 63 -46 127 -26 30 9 56 20 59 24 4 7
-16 251 -29 347 -6 42 -4 53 12 67 33 29 93 32 120 5z"/>
<path d="M11118 9150 c-135 -23 -252 -127 -302 -267 -8 -24 -11 -44 -5 -50 5
-5 5 -22 -1 -43 -10 -35 1 -62 23 -55 7 2 100 18 207 34 413 64 502 79 508 86
4 3 -1 20 -11 37 -12 21 -14 33 -7 38 18 11 -4 51 -57 101 -64 62 -121 96
-190 114 -62 16 -92 17 -165 5z"/>
<path d="M7635 8596 c-77 -19 -128 -50 -179 -108 -70 -77 -96 -134 -101 -223
-5 -89 -18 -84 153 -56 65 11 178 29 252 41 351 54 346 52 319 102 -8 15 -8
22 1 28 34 21 -95 155 -190 198 -66 30 -180 38 -255 18z"/>
<path d="M2623 7796 c-106 -35 -180 -101 -230 -207 -29 -61 -30 -69 -29 -184
2 -99 6 -131 26 -179 29 -74 95 -142 181 -188 61 -31 69 -33 169 -33 95 0 111
3 167 29 75 34 129 89 175 178 33 62 33 65 33 198 0 129 -1 137 -29 193 -36
71 -102 134 -180 172 -50 25 -74 30 -150 32 -57 2 -107 -2 -133 -11z"/>
<path d="M5860 6365 c-109 -31 -174 -85 -234 -196 -32 -58 -37 -78 -42 -153
-12 -199 60 -340 217 -423 50 -26 62 -28 169 -28 106 0 119 2 170 28 69 36
103 67 151 140 44 67 73 177 64 241 -3 22 -7 66 -9 97 -5 100 -92 211 -212
270 -77 38 -188 48 -274 24z"/>
<path d="M11627 5809 c-42 -25 -61 -137 -33 -203 11 -27 22 -35 61 -45 27 -7
52 -8 57 -3 4 4 15 35 24 68 19 75 11 169 -16 184 -24 13 -70 12 -93 -1z"/>
<path d="M11457 5092 c-30 -12 -67 -107 -67 -172 0 -75 25 -109 88 -117 56 -7
88 10 115 62 24 45 28 146 7 184 -20 39 -96 61 -143 43z"/>
<path d="M11948 4968 c-41 -62 -68 -132 -72 -180 -2 -29 -7 -61 -11 -70 -9
-21 35 -68 64 -68 33 0 79 48 102 108 26 67 32 190 10 216 -20 24 -76 21 -93
-6z"/>
<path d="M1311 4550 c-130 -46 -130 -46 -146 -144 -7 -44 27 -126 70 -166 l25
-24 83 34 c45 18 110 46 144 61 l62 28 -4 60 c-5 79 -45 155 -88 170 -43 15
-52 14 -146 -19z"/>
<path d="M11155 4375 c-51 -56 -70 -141 -44 -198 10 -21 65 -57 88 -57 5 0 24
26 42 58 29 50 33 65 32 126 0 55 -4 72 -19 83 -29 21 -72 16 -99 -12z"/>
<path d="M1981 3156 c-6 -7 -14 -37 -17 -66 -5 -44 -2 -57 20 -91 27 -41 99
-99 122 -99 7 0 29 14 48 31 l35 30 -16 37 c-28 61 -96 144 -130 159 -40 16
-48 16 -62 -1z"/>
<path d="M10271 3034 c-50 -54 -51 -57 -51 -117 l0 -61 63 -59 c104 -98 122
-110 157 -102 73 16 140 109 140 192 0 59 -10 75 -98 146 -62 51 -74 57 -115
57 -42 0 -48 -4 -96 -56z"/>
<path d="M7935 1740 c-22 -5 -62 -17 -89 -27 -72 -26 -76 -53 -35 -193 17 -59
35 -113 39 -119 9 -15 155 33 197 65 77 59 63 245 -20 269 -41 12 -52 13 -92
5z"/>
<path d="M6083 1255 c-28 -19 -34 -52 -36 -192 -2 -99 0 -115 19 -139 27 -37
68 -46 129 -31 l50 12 6 145 c7 164 3 190 -32 207 -34 18 -110 16 -136 -2z"/>
</g>
</svg>
